<?xml version="1.0" encoding="UTF-8"?>
<svg id="Make2D_Visible_Curves" data-name="Make2D$Visible$Curves" xmlns="http://www.w3.org/2000/svg" viewBox="0 0 2551.18 1700.79">
  <defs>
    <style>
      .cls-1 {
        fill: none;
        stroke: #000;
        stroke-linecap: round;
        stroke-linejoin: round;
        stroke-width: .71px;
      }
    </style>
  </defs>
  <g id="SPLINE">
    <path class="cls-1" d="M26.53,173.47v148.82"/>
  </g>
  <g id="SPLINE-2" data-name="SPLINE">
    <path class="cls-1" d="M26.53,350.63v148.82"/>
  </g>
  <g id="SPLINE-3" data-name="SPLINE">
    <path class="cls-1" d="M26.53,527.8c0,49.61,0,99.21,0,148.82"/>
  </g>
  <g id="SPLINE-4" data-name="SPLINE">
    <path class="cls-1" d="M26.53,704.96v148.82"/>
  </g>
  <g id="SPLINE-5" data-name="SPLINE">
    <path class="cls-1" d="M26.53,882.13c0,49.61,0,99.21,0,148.82"/>
  </g>
  <g id="SPLINE-6" data-name="SPLINE">
    <path class="cls-1" d="M26.53,1059.29v148.82"/>
  </g>
  <g id="SPLINE-7" data-name="SPLINE">
    <path class="cls-1" d="M26.53,1236.46v148.82"/>
  </g>
  <g id="SPLINE-8" data-name="SPLINE">
    <path class="cls-1" d="M26.53,1413.62v148.82"/>
  </g>
  <g id="SPLINE-9" data-name="SPLINE">
    <path class="cls-1" d="M26.53,1590.79c0,23.62,0,47.24,0,70.87"/>
  </g>
  <g id="SPLINE-10" data-name="SPLINE">
    <path class="cls-1" d="M363.39,145.12v28.35"/>
  </g>
  <g id="SPLINE-11" data-name="SPLINE">
    <path class="cls-1" d="M363.39,173.47c-112.29,0-224.57,0-336.86,0"/>
  </g>
  <g id="SPLINE-12" data-name="SPLINE">
    <path class="cls-1" d="M363.39,145.12c-112.29,0-224.57,0-336.86,0"/>
  </g>
  <g id="SPLINE-13" data-name="SPLINE">
    <path class="cls-1" d="M363.39,322.28v28.35"/>
  </g>
  <g id="SPLINE-14" data-name="SPLINE">
    <path class="cls-1" d="M363.39,350.63c-112.29,0-224.57,0-336.86,0"/>
  </g>
  <g id="SPLINE-15" data-name="SPLINE">
    <path class="cls-1" d="M363.39,322.28c-112.29,0-224.57,0-336.86,0"/>
  </g>
  <g id="SPLINE-16" data-name="SPLINE">
    <path class="cls-1" d="M363.39,499.45v28.35"/>
  </g>
  <g id="SPLINE-17" data-name="SPLINE">
    <path class="cls-1" d="M363.39,527.8c-112.29,0-224.57,0-336.86,0"/>
  </g>
  <g id="SPLINE-18" data-name="SPLINE">
    <path class="cls-1" d="M363.39,499.45c-112.29,0-224.57,0-336.86,0"/>
  </g>
  <g id="SPLINE-19" data-name="SPLINE">
    <path class="cls-1" d="M363.39,676.62v28.35"/>
  </g>
  <g id="SPLINE-20" data-name="SPLINE">
    <path class="cls-1" d="M363.39,704.96c-112.29,0-224.57,0-336.86,0"/>
  </g>
  <g id="SPLINE-21" data-name="SPLINE">
    <path class="cls-1" d="M363.39,676.62c-112.29,0-224.57,0-336.86,0"/>
  </g>
  <g id="SPLINE-22" data-name="SPLINE">
    <path class="cls-1" d="M363.39,853.78v28.35"/>
  </g>
  <g id="SPLINE-23" data-name="SPLINE">
    <path class="cls-1" d="M363.39,882.13c-112.29,0-224.57,0-336.86,0"/>
  </g>
  <g id="SPLINE-24" data-name="SPLINE">
    <path class="cls-1" d="M363.39,853.78c-112.29,0-224.57,0-336.86,0"/>
  </g>
  <g id="SPLINE-25" data-name="SPLINE">
    <path class="cls-1" d="M363.39,1030.95v28.35"/>
  </g>
  <g id="SPLINE-26" data-name="SPLINE">
    <path class="cls-1" d="M363.39,1059.29c-112.29,0-224.57,0-336.86,0"/>
  </g>
  <g id="SPLINE-27" data-name="SPLINE">
    <path class="cls-1" d="M363.39,1030.95c-112.29,0-224.57,0-336.86,0"/>
  </g>
  <g id="SPLINE-28" data-name="SPLINE">
    <path class="cls-1" d="M363.39,1208.11v28.35"/>
  </g>
  <g id="SPLINE-29" data-name="SPLINE">
    <path class="cls-1" d="M363.39,1236.46c-112.29,0-224.57,0-336.86,0"/>
  </g>
  <g id="SPLINE-30" data-name="SPLINE">
    <path class="cls-1" d="M363.39,1208.11c-112.29,0-224.57,0-336.86,0"/>
  </g>
  <g id="SPLINE-31" data-name="SPLINE">
    <path class="cls-1" d="M363.39,1385.28v28.35"/>
  </g>
  <g id="SPLINE-32" data-name="SPLINE">
    <path class="cls-1" d="M363.39,1413.62c-112.29,0-224.57,0-336.86,0"/>
  </g>
  <g id="SPLINE-33" data-name="SPLINE">
    <path class="cls-1" d="M363.39,1385.28c-112.29,0-224.57,0-336.86,0"/>
  </g>
  <g id="SPLINE-34" data-name="SPLINE">
    <path class="cls-1" d="M363.39,1562.44v28.35"/>
  </g>
  <g id="SPLINE-35" data-name="SPLINE">
    <path class="cls-1" d="M363.39,1590.79H26.53"/>
  </g>
  <g id="SPLINE-36" data-name="SPLINE">
    <path class="cls-1" d="M363.39,1562.44H26.53"/>
  </g>
  <g id="SPLINE-37" data-name="SPLINE">
    <path class="cls-1" d="M700.25,74.25c-224.57,0-449.15,0-673.72,0"/>
  </g>
  <g id="SPLINE-38" data-name="SPLINE">
    <path class="cls-1" d="M700.25,1661.66V74.25"/>
  </g>
  <g id="SPLINE-39" data-name="SPLINE">
    <path class="cls-1" d="M26.53,1661.66h673.72"/>
  </g>
  <g id="SPLINE-40" data-name="SPLINE">
    <path class="cls-1" d="M26.53,74.25v70.87"/>
  </g>
  <g id="SPLINE-41" data-name="SPLINE">
    <path class="cls-1" d="M740.12,173.47v148.82"/>
  </g>
  <g id="SPLINE-42" data-name="SPLINE">
    <path class="cls-1" d="M740.12,350.63c0,49.61,0,99.21,0,148.82"/>
  </g>
  <g id="SPLINE-43" data-name="SPLINE">
    <path class="cls-1" d="M740.12,527.8v148.82"/>
  </g>
  <g id="SPLINE-44" data-name="SPLINE">
    <path class="cls-1" d="M740.12,704.96v148.82"/>
  </g>
  <g id="SPLINE-45" data-name="SPLINE">
    <path class="cls-1" d="M740.12,882.13v148.82"/>
  </g>
  <g id="SPLINE-46" data-name="SPLINE">
    <path class="cls-1" d="M740.12,1059.29c0,49.61,0,99.21,0,148.82"/>
  </g>
  <g id="SPLINE-47" data-name="SPLINE">
    <path class="cls-1" d="M740.12,1236.46v148.82"/>
  </g>
  <g id="SPLINE-48" data-name="SPLINE">
    <path class="cls-1" d="M740.12,1413.62c0,49.61,0,99.21,0,148.82"/>
  </g>
  <g id="SPLINE-49" data-name="SPLINE">
    <path class="cls-1" d="M740.12,1590.79v70.87"/>
  </g>
  <g id="SPLINE-50" data-name="SPLINE">
    <path class="cls-1" d="M1077.93,173.47v-28.35"/>
  </g>
  <g id="SPLINE-51" data-name="SPLINE">
    <path class="cls-1" d="M1077.93,173.47c-112.6,0-225.2,0-337.8,0"/>
  </g>
  <g id="SPLINE-52" data-name="SPLINE">
    <path class="cls-1" d="M1077.93,145.12c-112.6,0-225.2,0-337.8,0"/>
  </g>
  <g id="SPLINE-53" data-name="SPLINE">
    <path class="cls-1" d="M1077.93,350.63v-28.35"/>
  </g>
  <g id="SPLINE-54" data-name="SPLINE">
    <path class="cls-1" d="M1077.93,350.63c-112.6,0-225.2,0-337.8,0"/>
  </g>
  <g id="SPLINE-55" data-name="SPLINE">
    <path class="cls-1" d="M1077.93,322.28c-112.6,0-225.2,0-337.8,0"/>
  </g>
  <g id="SPLINE-56" data-name="SPLINE">
    <path class="cls-1" d="M1077.93,527.8c0-9.45,0-18.9,0-28.35"/>
  </g>
  <g id="SPLINE-57" data-name="SPLINE">
    <path class="cls-1" d="M1077.93,527.8c-112.6,0-225.2,0-337.8,0"/>
  </g>
  <g id="SPLINE-58" data-name="SPLINE">
    <path class="cls-1" d="M1077.93,499.45c-112.6,0-225.2,0-337.8,0"/>
  </g>
  <g id="SPLINE-59" data-name="SPLINE">
    <path class="cls-1" d="M1077.93,704.96v-28.35"/>
  </g>
  <g id="SPLINE-60" data-name="SPLINE">
    <path class="cls-1" d="M1077.93,704.96c-112.6,0-225.2,0-337.8,0"/>
  </g>
  <g id="SPLINE-61" data-name="SPLINE">
    <path class="cls-1" d="M1077.93,676.62c-112.6,0-225.2,0-337.8,0"/>
  </g>
  <g id="SPLINE-62" data-name="SPLINE">
    <path class="cls-1" d="M1077.93,882.13v-28.35"/>
  </g>
  <g id="SPLINE-63" data-name="SPLINE">
    <path class="cls-1" d="M1077.93,882.13c-112.6,0-225.2,0-337.8,0"/>
  </g>
  <g id="SPLINE-64" data-name="SPLINE">
    <path class="cls-1" d="M1077.93,853.78c-112.6,0-225.2,0-337.8,0"/>
  </g>
  <g id="SPLINE-65" data-name="SPLINE">
    <path class="cls-1" d="M1077.93,1059.29v-28.35"/>
  </g>
  <g id="SPLINE-66" data-name="SPLINE">
    <path class="cls-1" d="M1077.93,1059.29c-112.6,0-225.2,0-337.8,0"/>
  </g>
  <g id="SPLINE-67" data-name="SPLINE">
    <path class="cls-1" d="M1077.93,1030.95c-112.6,0-225.2,0-337.8,0"/>
  </g>
  <g id="SPLINE-68" data-name="SPLINE">
    <path class="cls-1" d="M1077.93,1236.46c0-9.45,0-18.9,0-28.35"/>
  </g>
  <g id="SPLINE-69" data-name="SPLINE">
    <path class="cls-1" d="M1077.93,1236.46c-112.6,0-225.2,0-337.8,0"/>
  </g>
  <g id="SPLINE-70" data-name="SPLINE">
    <path class="cls-1" d="M1077.93,1208.11c-112.6,0-225.2,0-337.8,0"/>
  </g>
  <g id="SPLINE-71" data-name="SPLINE">
    <path class="cls-1" d="M1077.93,1413.62v-28.35"/>
  </g>
  <g id="SPLINE-72" data-name="SPLINE">
    <path class="cls-1" d="M1077.93,1413.62c-112.6,0-225.2,0-337.8,0"/>
  </g>
  <g id="SPLINE-73" data-name="SPLINE">
    <path class="cls-1" d="M1077.93,1385.28c-112.6,0-225.2,0-337.8,0"/>
  </g>
  <g id="SPLINE-74" data-name="SPLINE">
    <path class="cls-1" d="M1077.93,1590.79v-28.35"/>
  </g>
  <g id="SPLINE-75" data-name="SPLINE">
    <path class="cls-1" d="M1077.93,1590.79c-112.6,0-225.2,0-337.8,0"/>
  </g>
  <g id="SPLINE-76" data-name="SPLINE">
    <path class="cls-1" d="M1077.93,1562.44c-112.6,0-225.2,0-337.8,0"/>
  </g>
  <g id="SPLINE-77" data-name="SPLINE">
    <path class="cls-1" d="M1415.54,74.25c-225.14,0-450.28,0-675.42,0"/>
  </g>
  <g id="SPLINE-78" data-name="SPLINE">
    <path class="cls-1" d="M1415.54,1661.66V74.25"/>
  </g>
  <g id="SPLINE-79" data-name="SPLINE">
    <path class="cls-1" d="M740.12,1661.66h675.42"/>
  </g>
  <g id="SPLINE-80" data-name="SPLINE">
    <path class="cls-1" d="M740.12,74.25v70.87"/>
  </g>
  <g id="SPLINE-81" data-name="SPLINE">
    <path class="cls-1" d="M1462.04,182.07v148.82"/>
  </g>
  <g id="SPLINE-82" data-name="SPLINE">
    <path class="cls-1" d="M1462.04,359.24c0,49.61,0,99.21,0,148.82"/>
  </g>
  <g id="SPLINE-83" data-name="SPLINE">
    <path class="cls-1" d="M1462.04,536.4v148.82"/>
  </g>
  <g id="SPLINE-84" data-name="SPLINE">
    <path class="cls-1" d="M1462.04,713.57c0,49.61,0,99.21,0,148.82"/>
  </g>
  <g id="SPLINE-85" data-name="SPLINE">
    <path class="cls-1" d="M1462.04,890.73v148.82"/>
  </g>
  <g id="SPLINE-86" data-name="SPLINE">
    <path class="cls-1" d="M1462.04,1067.9c0,49.61,0,99.21,0,148.82"/>
  </g>
  <g id="SPLINE-87" data-name="SPLINE">
    <path class="cls-1" d="M1462.04,1245.06v148.82"/>
  </g>
  <g id="SPLINE-88" data-name="SPLINE">
    <path class="cls-1" d="M1462.04,1422.23c0,49.61,0,99.21,0,148.82"/>
  </g>
  <g id="SPLINE-89" data-name="SPLINE">
    <path class="cls-1" d="M1462.04,1599.39v70.87"/>
  </g>
  <g id="SPLINE-90" data-name="SPLINE">
    <path class="cls-1" d="M1793.61,182.07v-28.35"/>
  </g>
  <g id="SPLINE-91" data-name="SPLINE">
    <path class="cls-1" d="M1793.61,182.07h-331.57"/>
  </g>
  <g id="SPLINE-92" data-name="SPLINE">
    <path class="cls-1" d="M1793.61,153.72h-331.57"/>
  </g>
  <g id="SPLINE-93" data-name="SPLINE">
    <path class="cls-1" d="M1793.61,359.24v-28.35"/>
  </g>
  <g id="SPLINE-94" data-name="SPLINE">
    <path class="cls-1" d="M1793.61,359.24h-331.57"/>
  </g>
  <g id="SPLINE-95" data-name="SPLINE">
    <path class="cls-1" d="M1793.61,330.89h-331.57"/>
  </g>
  <g id="SPLINE-96" data-name="SPLINE">
    <path class="cls-1" d="M1793.61,536.4v-28.35"/>
  </g>
  <g id="SPLINE-97" data-name="SPLINE">
    <path class="cls-1" d="M1793.61,536.4h-331.57"/>
  </g>
  <g id="SPLINE-98" data-name="SPLINE">
    <path class="cls-1" d="M1793.61,508.05h-331.57"/>
  </g>
  <g id="SPLINE-99" data-name="SPLINE">
    <path class="cls-1" d="M1793.61,713.57v-28.35"/>
  </g>
  <g id="SPLINE-100" data-name="SPLINE">
    <path class="cls-1" d="M1793.61,713.57h-331.57"/>
  </g>
  <g id="SPLINE-101" data-name="SPLINE">
    <path class="cls-1" d="M1793.61,685.22h-331.57"/>
  </g>
  <g id="SPLINE-102" data-name="SPLINE">
    <path class="cls-1" d="M1793.61,890.73v-28.35"/>
  </g>
  <g id="SPLINE-103" data-name="SPLINE">
    <path class="cls-1" d="M1793.61,890.73h-331.57"/>
  </g>
  <g id="SPLINE-104" data-name="SPLINE">
    <path class="cls-1" d="M1793.61,862.38h-331.57"/>
  </g>
  <g id="SPLINE-105" data-name="SPLINE">
    <path class="cls-1" d="M1793.61,1067.9v-28.35"/>
  </g>
  <g id="SPLINE-106" data-name="SPLINE">
    <path class="cls-1" d="M1793.61,1067.9c-110.52,0-221.05,0-331.57,0"/>
  </g>
  <g id="SPLINE-107" data-name="SPLINE">
    <path class="cls-1" d="M1793.61,1039.55c-110.52,0-221.05,0-331.57,0"/>
  </g>
  <g id="SPLINE-108" data-name="SPLINE">
    <path class="cls-1" d="M1793.61,1245.06v-28.35"/>
  </g>
  <g id="SPLINE-109" data-name="SPLINE">
    <path class="cls-1" d="M1793.61,1245.06c-110.52,0-221.05,0-331.57,0"/>
  </g>
  <g id="SPLINE-110" data-name="SPLINE">
    <path class="cls-1" d="M1793.61,1216.72c-110.52,0-221.05,0-331.57,0"/>
  </g>
  <g id="SPLINE-111" data-name="SPLINE">
    <path class="cls-1" d="M1793.61,1422.23v-28.35"/>
  </g>
  <g id="SPLINE-112" data-name="SPLINE">
    <path class="cls-1" d="M1793.61,1422.23c-110.52,0-221.05,0-331.57,0"/>
  </g>
  <g id="SPLINE-113" data-name="SPLINE">
    <path class="cls-1" d="M1793.61,1393.88c-110.52,0-221.05,0-331.57,0"/>
  </g>
  <g id="SPLINE-114" data-name="SPLINE">
    <path class="cls-1" d="M1793.61,1599.39v-28.35"/>
  </g>
  <g id="SPLINE-115" data-name="SPLINE">
    <path class="cls-1" d="M1793.61,1599.39h-331.57"/>
  </g>
  <g id="SPLINE-116" data-name="SPLINE">
    <path class="cls-1" d="M1793.61,1571.05h-331.57"/>
  </g>
  <g id="SPLINE-117" data-name="SPLINE">
    <path class="cls-1" d="M2125.23,82.86h-663.19"/>
  </g>
  <g id="SPLINE-118" data-name="SPLINE">
    <path class="cls-1" d="M2125.23,1670.26c0-529.13,0-1058.27,0-1587.4"/>
  </g>
  <g id="SPLINE-119" data-name="SPLINE">
    <path class="cls-1" d="M1462.04,1670.26c221.06,0,442.13,0,663.19,0"/>
  </g>
  <g id="SPLINE-120" data-name="SPLINE">
    <path class="cls-1" d="M1462.04,82.86c0,23.62,0,47.24,0,70.87"/>
  </g>
</svg>